<?xml version="1.0" encoding="UTF-8" standalone="no"?>
<!DOCTYPE svg PUBLIC "-//W3C//DTD SVG 1.1//EN"
 "http://www.w3.org/Graphics/SVG/1.1/DTD/svg11.dtd">
<!-- Generated by graphviz version 2.47.0 (20210316.0004)
 -->
<!-- Title: dependencies Pages: 1 -->
<svg width="1332pt" height="284pt"
 viewBox="0.00 0.00 1332.00 284.00" xmlns="http://www.w3.org/2000/svg" xmlns:xlink="http://www.w3.org/1999/xlink">
<g id="graph0" class="graph" transform="scale(1 1) rotate(0) translate(4 280)">
<title>dependencies</title>
<polygon fill="white" stroke="transparent" points="-4,4 -4,-280 1328,-280 1328,4 -4,4"/>
<text text-anchor="start" x="641.01" y="-42.4" font-family="sans-serif" font-weight="bold" font-size="14.00">Legend</text>
<polygon fill="#ffffb3" stroke="transparent" points="428,-10 428,-30 448,-30 448,-10 428,-10"/>
<text text-anchor="start" x="451.63" y="-15.4" font-family="sans-serif" font-size="14.00"> &#160;Declarations</text>
<polygon fill="#8dd3c7" stroke="transparent" points="541,-10 541,-30 561,-30 561,-10 541,-10"/>
<text text-anchor="start" x="564.73" y="-15.4" font-family="sans-serif" font-size="14.00"> &#160;Module</text>
<polygon fill="#80b1d3" stroke="transparent" points="627,-10 627,-30 647,-30 647,-10 627,-10"/>
<text text-anchor="start" x="650.78" y="-15.4" font-family="sans-serif" font-size="14.00"> &#160;Bootstrap</text>
<polygon fill="#fdb462" stroke="transparent" points="724,-10 724,-30 744,-30 744,-10 724,-10"/>
<text text-anchor="start" x="747.67" y="-15.4" font-family="sans-serif" font-size="14.00"> &#160;Providers</text>
<polygon fill="#fb8072" stroke="transparent" points="820,-10 820,-30 840,-30 840,-10 820,-10"/>
<text text-anchor="start" x="843.73" y="-15.4" font-family="sans-serif" font-size="14.00"> &#160;Exports</text>
<g id="clust1" class="cluster">
<title>cluster_AppModule</title>
<polygon fill="none" stroke="black" stroke-dasharray="1,5" points="8,-70 8,-268 298,-268 298,-70 8,-70"/>
</g>
<g id="clust2" class="cluster">
<title>cluster_AppModule_declarations</title>
<polygon fill="none" stroke="black" points="168,-78 168,-130 290,-130 290,-78 168,-78"/>
</g>
<g id="clust4" class="cluster">
<title>cluster_AppModule_imports</title>
<polygon fill="none" stroke="black" points="16,-78 16,-130 160,-130 160,-78 16,-78"/>
</g>
<g id="clust6" class="cluster">
<title>cluster_AppModule_bootstrap</title>
<polygon fill="none" stroke="black" points="96,-208 96,-260 220,-260 220,-208 96,-208"/>
</g>
<g id="clust14" class="cluster">
<title>cluster_Tab1PageModule</title>
<polygon fill="none" stroke="black" stroke-dasharray="1,5" points="306,-70 306,-195 726,-195 726,-70 306,-70"/>
</g>
<g id="clust15" class="cluster">
<title>cluster_Tab1PageModule_declarations</title>
<polygon fill="none" stroke="black" points="498,-78 498,-130 718,-130 718,-78 498,-78"/>
</g>
<g id="clust18" class="cluster">
<title>cluster_Tab1PageModule_imports</title>
<polygon fill="none" stroke="black" points="314,-78 314,-130 490,-130 490,-78 314,-78"/>
</g>
<g id="clust28" class="cluster">
<title>cluster_Tab2PageModule</title>
<polygon fill="none" stroke="black" stroke-dasharray="1,5" points="734,-70 734,-195 1022,-195 1022,-70 734,-70"/>
</g>
<g id="clust29" class="cluster">
<title>cluster_Tab2PageModule_declarations</title>
<polygon fill="none" stroke="black" points="926,-78 926,-130 1014,-130 1014,-78 926,-78"/>
</g>
<g id="clust31" class="cluster">
<title>cluster_Tab2PageModule_imports</title>
<polygon fill="none" stroke="black" points="742,-78 742,-130 918,-130 918,-78 742,-78"/>
</g>
<g id="clust41" class="cluster">
<title>cluster_TabsPageModule</title>
<polygon fill="none" stroke="black" stroke-dasharray="1,5" points="1030,-70 1030,-195 1316,-195 1316,-70 1030,-70"/>
</g>
<g id="clust42" class="cluster">
<title>cluster_TabsPageModule_declarations</title>
<polygon fill="none" stroke="black" points="1222,-78 1222,-130 1308,-130 1308,-78 1222,-78"/>
</g>
<g id="clust44" class="cluster">
<title>cluster_TabsPageModule_imports</title>
<polygon fill="none" stroke="black" points="1038,-78 1038,-130 1214,-130 1214,-78 1038,-78"/>
</g>
<!-- AppComponent -->
<g id="node1" class="node">
<title>AppComponent</title>
<polygon fill="#ffffb3" stroke="black" points="281.94,-122 176.06,-122 176.06,-86 281.94,-86 281.94,-122"/>
<text text-anchor="middle" x="229" y="-99.8" font-family="Times,serif" font-size="14.00">AppComponent</text>
</g>
<!-- AppModule -->
<g id="node2" class="node">
<title>AppModule</title>
<polygon fill="#8dd3c7" stroke="black" points="199.66,-187 196.66,-191 175.66,-191 172.66,-187 116.34,-187 116.34,-151 199.66,-151 199.66,-187"/>
<text text-anchor="middle" x="158" y="-164.8" font-family="Times,serif" font-size="14.00">AppModule</text>
</g>
<!-- AppComponent&#45;&gt;AppModule -->
<g id="edge1" class="edge">
<title>AppComponent&#45;&gt;AppModule</title>
<path fill="none" stroke="black" d="M188.05,-122.11C188.05,-122.11 188.05,-140.99 188.05,-140.99"/>
<polygon fill="black" stroke="black" points="184.55,-140.99 188.05,-150.99 191.55,-140.99 184.55,-140.99"/>
</g>
<!-- AppComponent  -->
<g id="node4" class="node">
<title>AppComponent </title>
<polygon fill="#80b1d3" stroke="black" points="212.44,-252 103.56,-252 103.56,-216 212.44,-216 212.44,-252"/>
<text text-anchor="middle" x="158" y="-229.8" font-family="Times,serif" font-size="14.00">AppComponent </text>
</g>
<!-- AppModule&#45;&gt;AppComponent  -->
<g id="edge3" class="edge">
<title>AppModule&#45;&gt;AppComponent </title>
<path fill="none" stroke="black" stroke-dasharray="1,5" d="M158,-187.11C158,-187.11 158,-205.99 158,-205.99"/>
<polygon fill="black" stroke="black" points="154.5,-205.99 158,-215.99 161.5,-205.99 154.5,-205.99"/>
</g>
<!-- AppRoutingModule -->
<g id="node3" class="node">
<title>AppRoutingModule</title>
<polygon fill="#8dd3c7" stroke="black" points="152.27,-122 149.27,-126 128.27,-126 125.27,-122 23.73,-122 23.73,-86 152.27,-86 152.27,-122"/>
<text text-anchor="middle" x="88" y="-99.8" font-family="Times,serif" font-size="14.00">AppRoutingModule</text>
</g>
<!-- AppRoutingModule&#45;&gt;AppModule -->
<g id="edge2" class="edge">
<title>AppRoutingModule&#45;&gt;AppModule</title>
<path fill="none" stroke="black" d="M134.28,-122.11C134.28,-122.11 134.28,-140.99 134.28,-140.99"/>
<polygon fill="black" stroke="black" points="130.78,-140.99 134.28,-150.99 137.78,-140.99 130.78,-140.99"/>
</g>
<!-- MenuComponent -->
<g id="node5" class="node">
<title>MenuComponent</title>
<polygon fill="#ffffb3" stroke="black" points="709.99,-122 596.01,-122 596.01,-86 709.99,-86 709.99,-122"/>
<text text-anchor="middle" x="653" y="-99.8" font-family="Times,serif" font-size="14.00">MenuComponent</text>
</g>
<!-- Tab1PageModule -->
<g id="node7" class="node">
<title>Tab1PageModule</title>
<polygon fill="#8dd3c7" stroke="black" points="599.53,-187 596.53,-191 575.53,-191 572.53,-187 484.47,-187 484.47,-151 599.53,-151 599.53,-187"/>
<text text-anchor="middle" x="542" y="-164.8" font-family="Times,serif" font-size="14.00">Tab1PageModule</text>
</g>
<!-- MenuComponent&#45;&gt;Tab1PageModule -->
<g id="edge4" class="edge">
<title>MenuComponent&#45;&gt;Tab1PageModule</title>
<path fill="none" stroke="black" d="M595.9,-104C590.5,-104 587,-104 587,-104 587,-104 587,-140.89 587,-140.89"/>
<polygon fill="black" stroke="black" points="583.5,-140.89 587,-150.89 590.5,-140.89 583.5,-140.89"/>
</g>
<!-- Tab1Page -->
<g id="node6" class="node">
<title>Tab1Page</title>
<polygon fill="#ffffb3" stroke="black" points="577.98,-122 506.02,-122 506.02,-86 577.98,-86 577.98,-122"/>
<text text-anchor="middle" x="542" y="-99.8" font-family="Times,serif" font-size="14.00">Tab1Page</text>
</g>
<!-- Tab1Page&#45;&gt;Tab1PageModule -->
<g id="edge5" class="edge">
<title>Tab1Page&#45;&gt;Tab1PageModule</title>
<path fill="none" stroke="black" d="M542,-122.11C542,-122.11 542,-140.99 542,-140.99"/>
<polygon fill="black" stroke="black" points="538.5,-140.99 542,-150.99 545.5,-140.99 538.5,-140.99"/>
</g>
<!-- Tab1PageRoutingModule -->
<g id="node8" class="node">
<title>Tab1PageRoutingModule</title>
<polygon fill="#8dd3c7" stroke="black" points="482.15,-122 479.15,-126 458.15,-126 455.15,-122 321.85,-122 321.85,-86 482.15,-86 482.15,-122"/>
<text text-anchor="middle" x="402" y="-99.8" font-family="Times,serif" font-size="14.00">Tab1PageRoutingModule</text>
</g>
<!-- Tab1PageRoutingModule&#45;&gt;Tab1PageModule -->
<g id="edge6" class="edge">
<title>Tab1PageRoutingModule&#45;&gt;Tab1PageModule</title>
<path fill="none" stroke="black" d="M482.17,-104C490.01,-104 495.12,-104 495.12,-104 495.12,-104 495.12,-140.89 495.12,-140.89"/>
<polygon fill="black" stroke="black" points="491.62,-140.89 495.12,-150.89 498.62,-140.89 491.62,-140.89"/>
</g>
<!-- Tab2Page -->
<g id="node9" class="node">
<title>Tab2Page</title>
<polygon fill="#ffffb3" stroke="black" points="1005.98,-122 934.02,-122 934.02,-86 1005.98,-86 1005.98,-122"/>
<text text-anchor="middle" x="970" y="-99.8" font-family="Times,serif" font-size="14.00">Tab2Page</text>
</g>
<!-- Tab2PageModule -->
<g id="node10" class="node">
<title>Tab2PageModule</title>
<polygon fill="#8dd3c7" stroke="black" points="950.53,-187 947.53,-191 926.53,-191 923.53,-187 835.47,-187 835.47,-151 950.53,-151 950.53,-187"/>
<text text-anchor="middle" x="893" y="-164.8" font-family="Times,serif" font-size="14.00">Tab2PageModule</text>
</g>
<!-- Tab2Page&#45;&gt;Tab2PageModule -->
<g id="edge7" class="edge">
<title>Tab2Page&#45;&gt;Tab2PageModule</title>
<path fill="none" stroke="black" d="M942.39,-122.11C942.39,-122.11 942.39,-140.99 942.39,-140.99"/>
<polygon fill="black" stroke="black" points="938.89,-140.99 942.39,-150.99 945.89,-140.99 938.89,-140.99"/>
</g>
<!-- Tab2PageRoutingModule -->
<g id="node11" class="node">
<title>Tab2PageRoutingModule</title>
<polygon fill="#8dd3c7" stroke="black" points="910.15,-122 907.15,-126 886.15,-126 883.15,-122 749.85,-122 749.85,-86 910.15,-86 910.15,-122"/>
<text text-anchor="middle" x="830" y="-99.8" font-family="Times,serif" font-size="14.00">Tab2PageRoutingModule</text>
</g>
<!-- Tab2PageRoutingModule&#45;&gt;Tab2PageModule -->
<g id="edge8" class="edge">
<title>Tab2PageRoutingModule&#45;&gt;Tab2PageModule</title>
<path fill="none" stroke="black" d="M872.78,-122.11C872.78,-122.11 872.78,-140.99 872.78,-140.99"/>
<polygon fill="black" stroke="black" points="869.28,-140.99 872.78,-150.99 876.28,-140.99 869.28,-140.99"/>
</g>
<!-- TabsPage -->
<g id="node12" class="node">
<title>TabsPage</title>
<polygon fill="#ffffb3" stroke="black" points="1300.42,-122 1229.58,-122 1229.58,-86 1300.42,-86 1300.42,-122"/>
<text text-anchor="middle" x="1265" y="-99.8" font-family="Times,serif" font-size="14.00">TabsPage</text>
</g>
<!-- TabsPageModule -->
<g id="node13" class="node">
<title>TabsPageModule</title>
<polygon fill="#8dd3c7" stroke="black" points="1244.97,-187 1241.97,-191 1220.97,-191 1217.97,-187 1131.03,-187 1131.03,-151 1244.97,-151 1244.97,-187"/>
<text text-anchor="middle" x="1188" y="-164.8" font-family="Times,serif" font-size="14.00">TabsPageModule</text>
</g>
<!-- TabsPage&#45;&gt;TabsPageModule -->
<g id="edge9" class="edge">
<title>TabsPage&#45;&gt;TabsPageModule</title>
<path fill="none" stroke="black" d="M1237.39,-122.11C1237.39,-122.11 1237.39,-140.99 1237.39,-140.99"/>
<polygon fill="black" stroke="black" points="1233.89,-140.99 1237.39,-150.99 1240.89,-140.99 1233.89,-140.99"/>
</g>
<!-- TabsPageRoutingModule -->
<g id="node14" class="node">
<title>TabsPageRoutingModule</title>
<polygon fill="#8dd3c7" stroke="black" points="1205.59,-122 1202.59,-126 1181.59,-126 1178.59,-122 1046.41,-122 1046.41,-86 1205.59,-86 1205.59,-122"/>
<text text-anchor="middle" x="1126" y="-99.8" font-family="Times,serif" font-size="14.00">TabsPageRoutingModule</text>
</g>
<!-- TabsPageRoutingModule&#45;&gt;TabsPageModule -->
<g id="edge10" class="edge">
<title>TabsPageRoutingModule&#45;&gt;TabsPageModule</title>
<path fill="none" stroke="black" d="M1168.28,-122.11C1168.28,-122.11 1168.28,-140.99 1168.28,-140.99"/>
<polygon fill="black" stroke="black" points="1164.78,-140.99 1168.28,-150.99 1171.78,-140.99 1164.78,-140.99"/>
</g>
</g>
</svg>
