<?xml version="1.0" encoding="UTF-8" standalone="no"?>
<!DOCTYPE svg PUBLIC "-//W3C//DTD SVG 1.1//EN"
 "http://www.w3.org/Graphics/SVG/1.1/DTD/svg11.dtd">
<!-- Generated by graphviz version 2.47.0 (20210316.0004)
 -->
<!-- Title: dependencies Pages: 1 -->
<svg width="1744pt" height="284pt"
 viewBox="0.00 0.00 1744.00 284.00" xmlns="http://www.w3.org/2000/svg" xmlns:xlink="http://www.w3.org/1999/xlink">
<g id="graph0" class="graph" transform="scale(1 1) rotate(0) translate(4 280)">
<title>dependencies</title>
<polygon fill="white" stroke="transparent" points="-4,4 -4,-280 1740,-280 1740,4 -4,4"/>
<text text-anchor="start" x="847.01" y="-42.4" font-family="sans-serif" font-weight="bold" font-size="14.00">Legend</text>
<polygon fill="#ffffb3" stroke="transparent" points="634,-10 634,-30 654,-30 654,-10 634,-10"/>
<text text-anchor="start" x="657.63" y="-15.4" font-family="sans-serif" font-size="14.00"> &#160;Declarations</text>
<polygon fill="#8dd3c7" stroke="transparent" points="747,-10 747,-30 767,-30 767,-10 747,-10"/>
<text text-anchor="start" x="770.73" y="-15.4" font-family="sans-serif" font-size="14.00"> &#160;Module</text>
<polygon fill="#80b1d3" stroke="transparent" points="833,-10 833,-30 853,-30 853,-10 833,-10"/>
<text text-anchor="start" x="856.78" y="-15.4" font-family="sans-serif" font-size="14.00"> &#160;Bootstrap</text>
<polygon fill="#fdb462" stroke="transparent" points="930,-10 930,-30 950,-30 950,-10 930,-10"/>
<text text-anchor="start" x="953.67" y="-15.4" font-family="sans-serif" font-size="14.00"> &#160;Providers</text>
<polygon fill="#fb8072" stroke="transparent" points="1026,-10 1026,-30 1046,-30 1046,-10 1026,-10"/>
<text text-anchor="start" x="1049.73" y="-15.4" font-family="sans-serif" font-size="14.00"> &#160;Exports</text>
<g id="clust1" class="cluster">
<title>cluster_AppModule</title>
<polygon fill="none" stroke="black" stroke-dasharray="1,5" points="8,-70 8,-268 298,-268 298,-70 8,-70"/>
</g>
<g id="clust2" class="cluster">
<title>cluster_AppModule_declarations</title>
<polygon fill="none" stroke="black" points="168,-78 168,-130 290,-130 290,-78 168,-78"/>
</g>
<g id="clust4" class="cluster">
<title>cluster_AppModule_imports</title>
<polygon fill="none" stroke="black" points="16,-78 16,-130 160,-130 160,-78 16,-78"/>
</g>
<g id="clust6" class="cluster">
<title>cluster_AppModule_bootstrap</title>
<polygon fill="none" stroke="black" points="96,-208 96,-260 220,-260 220,-208 96,-208"/>
</g>
<g id="clust14" class="cluster">
<title>cluster_ExploreContainerComponentModule</title>
<polygon fill="none" stroke="black" stroke-dasharray="1,5" points="306,-70 306,-268 546,-268 546,-70 306,-70"/>
</g>
<g id="clust15" class="cluster">
<title>cluster_ExploreContainerComponentModule_declarations</title>
<polygon fill="none" stroke="black" points="328,-78 328,-130 524,-130 524,-78 328,-78"/>
</g>
<g id="clust18" class="cluster">
<title>cluster_ExploreContainerComponentModule_exports</title>
<polygon fill="none" stroke="black" points="326,-208 326,-260 526,-260 526,-208 326,-208"/>
</g>
<g id="clust21" class="cluster">
<title>cluster_Tab1PageModule</title>
<polygon fill="none" stroke="black" stroke-dasharray="1,5" points="554,-70 554,-195 842,-195 842,-70 554,-70"/>
</g>
<g id="clust22" class="cluster">
<title>cluster_Tab1PageModule_declarations</title>
<polygon fill="none" stroke="black" points="746,-78 746,-130 834,-130 834,-78 746,-78"/>
</g>
<g id="clust24" class="cluster">
<title>cluster_Tab1PageModule_imports</title>
<polygon fill="none" stroke="black" points="562,-78 562,-130 738,-130 738,-78 562,-78"/>
</g>
<g id="clust34" class="cluster">
<title>cluster_Tab2PageModule</title>
<polygon fill="none" stroke="black" stroke-dasharray="1,5" points="850,-70 850,-195 1138,-195 1138,-70 850,-70"/>
</g>
<g id="clust35" class="cluster">
<title>cluster_Tab2PageModule_declarations</title>
<polygon fill="none" stroke="black" points="1042,-78 1042,-130 1130,-130 1130,-78 1042,-78"/>
</g>
<g id="clust37" class="cluster">
<title>cluster_Tab2PageModule_imports</title>
<polygon fill="none" stroke="black" points="858,-78 858,-130 1034,-130 1034,-78 858,-78"/>
</g>
<g id="clust47" class="cluster">
<title>cluster_Tab3PageModule</title>
<polygon fill="none" stroke="black" stroke-dasharray="1,5" points="1146,-70 1146,-195 1434,-195 1434,-70 1146,-70"/>
</g>
<g id="clust48" class="cluster">
<title>cluster_Tab3PageModule_declarations</title>
<polygon fill="none" stroke="black" points="1338,-78 1338,-130 1426,-130 1426,-78 1338,-78"/>
</g>
<g id="clust50" class="cluster">
<title>cluster_Tab3PageModule_imports</title>
<polygon fill="none" stroke="black" points="1154,-78 1154,-130 1330,-130 1330,-78 1154,-78"/>
</g>
<g id="clust60" class="cluster">
<title>cluster_TabsPageModule</title>
<polygon fill="none" stroke="black" stroke-dasharray="1,5" points="1442,-70 1442,-195 1728,-195 1728,-70 1442,-70"/>
</g>
<g id="clust61" class="cluster">
<title>cluster_TabsPageModule_declarations</title>
<polygon fill="none" stroke="black" points="1634,-78 1634,-130 1720,-130 1720,-78 1634,-78"/>
</g>
<g id="clust63" class="cluster">
<title>cluster_TabsPageModule_imports</title>
<polygon fill="none" stroke="black" points="1450,-78 1450,-130 1626,-130 1626,-78 1450,-78"/>
</g>
<!-- AppComponent -->
<g id="node1" class="node">
<title>AppComponent</title>
<polygon fill="#ffffb3" stroke="black" points="281.94,-122 176.06,-122 176.06,-86 281.94,-86 281.94,-122"/>
<text text-anchor="middle" x="229" y="-99.8" font-family="Times,serif" font-size="14.00">AppComponent</text>
</g>
<!-- AppModule -->
<g id="node2" class="node">
<title>AppModule</title>
<polygon fill="#8dd3c7" stroke="black" points="199.66,-187 196.66,-191 175.66,-191 172.66,-187 116.34,-187 116.34,-151 199.66,-151 199.66,-187"/>
<text text-anchor="middle" x="158" y="-164.8" font-family="Times,serif" font-size="14.00">AppModule</text>
</g>
<!-- AppComponent&#45;&gt;AppModule -->
<g id="edge1" class="edge">
<title>AppComponent&#45;&gt;AppModule</title>
<path fill="none" stroke="black" d="M188.05,-122.11C188.05,-122.11 188.05,-140.99 188.05,-140.99"/>
<polygon fill="black" stroke="black" points="184.55,-140.99 188.05,-150.99 191.55,-140.99 184.55,-140.99"/>
</g>
<!-- AppComponent  -->
<g id="node4" class="node">
<title>AppComponent </title>
<polygon fill="#80b1d3" stroke="black" points="212.44,-252 103.56,-252 103.56,-216 212.44,-216 212.44,-252"/>
<text text-anchor="middle" x="158" y="-229.8" font-family="Times,serif" font-size="14.00">AppComponent </text>
</g>
<!-- AppModule&#45;&gt;AppComponent  -->
<g id="edge3" class="edge">
<title>AppModule&#45;&gt;AppComponent </title>
<path fill="none" stroke="black" stroke-dasharray="1,5" d="M158,-187.11C158,-187.11 158,-205.99 158,-205.99"/>
<polygon fill="black" stroke="black" points="154.5,-205.99 158,-215.99 161.5,-205.99 154.5,-205.99"/>
</g>
<!-- AppRoutingModule -->
<g id="node3" class="node">
<title>AppRoutingModule</title>
<polygon fill="#8dd3c7" stroke="black" points="152.27,-122 149.27,-126 128.27,-126 125.27,-122 23.73,-122 23.73,-86 152.27,-86 152.27,-122"/>
<text text-anchor="middle" x="88" y="-99.8" font-family="Times,serif" font-size="14.00">AppRoutingModule</text>
</g>
<!-- AppRoutingModule&#45;&gt;AppModule -->
<g id="edge2" class="edge">
<title>AppRoutingModule&#45;&gt;AppModule</title>
<path fill="none" stroke="black" d="M134.28,-122.11C134.28,-122.11 134.28,-140.99 134.28,-140.99"/>
<polygon fill="black" stroke="black" points="130.78,-140.99 134.28,-150.99 137.78,-140.99 130.78,-140.99"/>
</g>
<!-- ExploreContainerComponent -->
<g id="node5" class="node">
<title>ExploreContainerComponent</title>
<polygon fill="#ffffb3" stroke="black" points="516.36,-122 335.64,-122 335.64,-86 516.36,-86 516.36,-122"/>
<text text-anchor="middle" x="426" y="-99.8" font-family="Times,serif" font-size="14.00">ExploreContainerComponent</text>
</g>
<!-- ExploreContainerComponentModule -->
<g id="node6" class="node">
<title>ExploreContainerComponentModule</title>
<polygon fill="#8dd3c7" stroke="black" points="538.41,-187 535.41,-191 514.41,-191 511.41,-187 313.59,-187 313.59,-151 538.41,-151 538.41,-187"/>
<text text-anchor="middle" x="426" y="-164.8" font-family="Times,serif" font-size="14.00">ExploreContainerComponentModule</text>
</g>
<!-- ExploreContainerComponent&#45;&gt;ExploreContainerComponentModule -->
<g id="edge4" class="edge">
<title>ExploreContainerComponent&#45;&gt;ExploreContainerComponentModule</title>
<path fill="none" stroke="black" d="M426,-122.11C426,-122.11 426,-140.99 426,-140.99"/>
<polygon fill="black" stroke="black" points="422.5,-140.99 426,-150.99 429.5,-140.99 422.5,-140.99"/>
</g>
<!-- ExploreContainerComponent  -->
<g id="node7" class="node">
<title>ExploreContainerComponent </title>
<polygon fill="#fb8072" stroke="black" points="518.36,-252 333.64,-252 333.64,-216 518.36,-216 518.36,-252"/>
<text text-anchor="middle" x="426" y="-229.8" font-family="Times,serif" font-size="14.00">ExploreContainerComponent </text>
</g>
<!-- ExploreContainerComponentModule&#45;&gt;ExploreContainerComponent  -->
<g id="edge5" class="edge">
<title>ExploreContainerComponentModule&#45;&gt;ExploreContainerComponent </title>
<path fill="none" stroke="black" stroke-dasharray="5,2" d="M426,-187.11C426,-187.11 426,-205.99 426,-205.99"/>
<polygon fill="black" stroke="black" points="422.5,-205.99 426,-215.99 429.5,-205.99 422.5,-205.99"/>
</g>
<!-- Tab1Page -->
<g id="node8" class="node">
<title>Tab1Page</title>
<polygon fill="#ffffb3" stroke="black" points="825.98,-122 754.02,-122 754.02,-86 825.98,-86 825.98,-122"/>
<text text-anchor="middle" x="790" y="-99.8" font-family="Times,serif" font-size="14.00">Tab1Page</text>
</g>
<!-- Tab1PageModule -->
<g id="node9" class="node">
<title>Tab1PageModule</title>
<polygon fill="#8dd3c7" stroke="black" points="770.53,-187 767.53,-191 746.53,-191 743.53,-187 655.47,-187 655.47,-151 770.53,-151 770.53,-187"/>
<text text-anchor="middle" x="713" y="-164.8" font-family="Times,serif" font-size="14.00">Tab1PageModule</text>
</g>
<!-- Tab1Page&#45;&gt;Tab1PageModule -->
<g id="edge6" class="edge">
<title>Tab1Page&#45;&gt;Tab1PageModule</title>
<path fill="none" stroke="black" d="M762.39,-122.11C762.39,-122.11 762.39,-140.99 762.39,-140.99"/>
<polygon fill="black" stroke="black" points="758.89,-140.99 762.39,-150.99 765.89,-140.99 758.89,-140.99"/>
</g>
<!-- Tab1PageRoutingModule -->
<g id="node10" class="node">
<title>Tab1PageRoutingModule</title>
<polygon fill="#8dd3c7" stroke="black" points="730.15,-122 727.15,-126 706.15,-126 703.15,-122 569.85,-122 569.85,-86 730.15,-86 730.15,-122"/>
<text text-anchor="middle" x="650" y="-99.8" font-family="Times,serif" font-size="14.00">Tab1PageRoutingModule</text>
</g>
<!-- Tab1PageRoutingModule&#45;&gt;Tab1PageModule -->
<g id="edge7" class="edge">
<title>Tab1PageRoutingModule&#45;&gt;Tab1PageModule</title>
<path fill="none" stroke="black" d="M692.78,-122.11C692.78,-122.11 692.78,-140.99 692.78,-140.99"/>
<polygon fill="black" stroke="black" points="689.28,-140.99 692.78,-150.99 696.28,-140.99 689.28,-140.99"/>
</g>
<!-- Tab2Page -->
<g id="node11" class="node">
<title>Tab2Page</title>
<polygon fill="#ffffb3" stroke="black" points="1121.98,-122 1050.02,-122 1050.02,-86 1121.98,-86 1121.98,-122"/>
<text text-anchor="middle" x="1086" y="-99.8" font-family="Times,serif" font-size="14.00">Tab2Page</text>
</g>
<!-- Tab2PageModule -->
<g id="node12" class="node">
<title>Tab2PageModule</title>
<polygon fill="#8dd3c7" stroke="black" points="1066.53,-187 1063.53,-191 1042.53,-191 1039.53,-187 951.47,-187 951.47,-151 1066.53,-151 1066.53,-187"/>
<text text-anchor="middle" x="1009" y="-164.8" font-family="Times,serif" font-size="14.00">Tab2PageModule</text>
</g>
<!-- Tab2Page&#45;&gt;Tab2PageModule -->
<g id="edge8" class="edge">
<title>Tab2Page&#45;&gt;Tab2PageModule</title>
<path fill="none" stroke="black" d="M1058.39,-122.11C1058.39,-122.11 1058.39,-140.99 1058.39,-140.99"/>
<polygon fill="black" stroke="black" points="1054.89,-140.99 1058.39,-150.99 1061.89,-140.99 1054.89,-140.99"/>
</g>
<!-- Tab2PageRoutingModule -->
<g id="node13" class="node">
<title>Tab2PageRoutingModule</title>
<polygon fill="#8dd3c7" stroke="black" points="1026.15,-122 1023.15,-126 1002.15,-126 999.15,-122 865.85,-122 865.85,-86 1026.15,-86 1026.15,-122"/>
<text text-anchor="middle" x="946" y="-99.8" font-family="Times,serif" font-size="14.00">Tab2PageRoutingModule</text>
</g>
<!-- Tab2PageRoutingModule&#45;&gt;Tab2PageModule -->
<g id="edge9" class="edge">
<title>Tab2PageRoutingModule&#45;&gt;Tab2PageModule</title>
<path fill="none" stroke="black" d="M988.78,-122.11C988.78,-122.11 988.78,-140.99 988.78,-140.99"/>
<polygon fill="black" stroke="black" points="985.28,-140.99 988.78,-150.99 992.28,-140.99 985.28,-140.99"/>
</g>
<!-- Tab3Page -->
<g id="node14" class="node">
<title>Tab3Page</title>
<polygon fill="#ffffb3" stroke="black" points="1417.98,-122 1346.02,-122 1346.02,-86 1417.98,-86 1417.98,-122"/>
<text text-anchor="middle" x="1382" y="-99.8" font-family="Times,serif" font-size="14.00">Tab3Page</text>
</g>
<!-- Tab3PageModule -->
<g id="node15" class="node">
<title>Tab3PageModule</title>
<polygon fill="#8dd3c7" stroke="black" points="1362.53,-187 1359.53,-191 1338.53,-191 1335.53,-187 1247.47,-187 1247.47,-151 1362.53,-151 1362.53,-187"/>
<text text-anchor="middle" x="1305" y="-164.8" font-family="Times,serif" font-size="14.00">Tab3PageModule</text>
</g>
<!-- Tab3Page&#45;&gt;Tab3PageModule -->
<g id="edge10" class="edge">
<title>Tab3Page&#45;&gt;Tab3PageModule</title>
<path fill="none" stroke="black" d="M1354.39,-122.11C1354.39,-122.11 1354.39,-140.99 1354.39,-140.99"/>
<polygon fill="black" stroke="black" points="1350.89,-140.99 1354.39,-150.99 1357.89,-140.99 1350.89,-140.99"/>
</g>
<!-- Tab3PageRoutingModule -->
<g id="node16" class="node">
<title>Tab3PageRoutingModule</title>
<polygon fill="#8dd3c7" stroke="black" points="1322.15,-122 1319.15,-126 1298.15,-126 1295.15,-122 1161.85,-122 1161.85,-86 1322.15,-86 1322.15,-122"/>
<text text-anchor="middle" x="1242" y="-99.8" font-family="Times,serif" font-size="14.00">Tab3PageRoutingModule</text>
</g>
<!-- Tab3PageRoutingModule&#45;&gt;Tab3PageModule -->
<g id="edge11" class="edge">
<title>Tab3PageRoutingModule&#45;&gt;Tab3PageModule</title>
<path fill="none" stroke="black" d="M1284.78,-122.11C1284.78,-122.11 1284.78,-140.99 1284.78,-140.99"/>
<polygon fill="black" stroke="black" points="1281.28,-140.99 1284.78,-150.99 1288.28,-140.99 1281.28,-140.99"/>
</g>
<!-- TabsPage -->
<g id="node17" class="node">
<title>TabsPage</title>
<polygon fill="#ffffb3" stroke="black" points="1712.42,-122 1641.58,-122 1641.58,-86 1712.42,-86 1712.42,-122"/>
<text text-anchor="middle" x="1677" y="-99.8" font-family="Times,serif" font-size="14.00">TabsPage</text>
</g>
<!-- TabsPageModule -->
<g id="node18" class="node">
<title>TabsPageModule</title>
<polygon fill="#8dd3c7" stroke="black" points="1656.97,-187 1653.97,-191 1632.97,-191 1629.97,-187 1543.03,-187 1543.03,-151 1656.97,-151 1656.97,-187"/>
<text text-anchor="middle" x="1600" y="-164.8" font-family="Times,serif" font-size="14.00">TabsPageModule</text>
</g>
<!-- TabsPage&#45;&gt;TabsPageModule -->
<g id="edge12" class="edge">
<title>TabsPage&#45;&gt;TabsPageModule</title>
<path fill="none" stroke="black" d="M1649.39,-122.11C1649.39,-122.11 1649.39,-140.99 1649.39,-140.99"/>
<polygon fill="black" stroke="black" points="1645.89,-140.99 1649.39,-150.99 1652.89,-140.99 1645.89,-140.99"/>
</g>
<!-- TabsPageRoutingModule -->
<g id="node19" class="node">
<title>TabsPageRoutingModule</title>
<polygon fill="#8dd3c7" stroke="black" points="1617.59,-122 1614.59,-126 1593.59,-126 1590.59,-122 1458.41,-122 1458.41,-86 1617.59,-86 1617.59,-122"/>
<text text-anchor="middle" x="1538" y="-99.8" font-family="Times,serif" font-size="14.00">TabsPageRoutingModule</text>
</g>
<!-- TabsPageRoutingModule&#45;&gt;TabsPageModule -->
<g id="edge13" class="edge">
<title>TabsPageRoutingModule&#45;&gt;TabsPageModule</title>
<path fill="none" stroke="black" d="M1580.28,-122.11C1580.28,-122.11 1580.28,-140.99 1580.28,-140.99"/>
<polygon fill="black" stroke="black" points="1576.78,-140.99 1580.28,-150.99 1583.78,-140.99 1576.78,-140.99"/>
</g>
</g>
</svg>
